<?xml version="1.0" encoding="UTF-8"?>
<svg version="1.1" xmlns="http://www.w3.org/2000/svg" width="512" height="512">
<path d="M0 0 C0.98745209 0.00054382 1.97490417 0.00108765 2.99227905 0.00164795 C19.02478881 0.04212223 34.40893936 0.96082131 50.125 4.375 C51.66655762 4.70443604 51.66655762 4.70443604 53.23925781 5.04052734 C111.46836739 17.82054161 165.65974668 50.98947361 201.125 99.375 C201.54974609 99.94428223 201.97449219 100.51356445 202.41210938 101.10009766 C208.93035212 109.84450273 214.70965189 118.91252338 220.125 128.375 C220.78113281 129.49777344 221.43726563 130.62054688 222.11328125 131.77734375 C242.4742387 168.05167475 251.60276347 209.69385427 251.4375 251 C251.43534485 251.97088562 251.4331897 252.94177124 251.43096924 253.94207764 C251.37991637 268.28085186 250.98449913 282.28046967 248.125 296.375 C247.82698486 297.89818848 247.82698486 297.89818848 247.52294922 299.45214844 C235.48498475 359.63295359 201.97240947 415.8382268 152.125 452.375 C151.27107666 453.01211914 151.27107666 453.01211914 150.39990234 453.66210938 C136.80466877 463.79625022 122.4352833 472.11615404 107.125 479.375 C106.43067871 479.70886719 105.73635742 480.04273438 105.02099609 480.38671875 C85.94010457 489.50154408 65.86042834 495.38237097 45.125 499.375 C44.30209473 499.54016113 43.47918945 499.70532227 42.63134766 499.87548828 C15.11866502 505.16575754 -17.4442471 505.04980074 -44.875 499.375 C-46.34163086 499.07698486 -46.34163086 499.07698486 -47.83789062 498.77294922 C-90.52640807 489.84047731 -129.76588943 471.94282905 -162.875 443.375 C-164.01001953 442.40626953 -164.01001953 442.40626953 -165.16796875 441.41796875 C-178.31932767 429.89676153 -190.55594178 417.5022337 -200.875 403.375 C-201.73306152 402.22394983 -202.59113451 401.07290823 -203.44921875 399.921875 C-209.48797189 391.72913506 -214.82213163 383.2040998 -219.875 374.375 C-220.53113281 373.25222656 -221.18726563 372.12945312 -221.86328125 370.97265625 C-233.83869953 349.63769261 -241.52378 326.03159568 -246.625 302.1875 C-246.82391846 301.26251709 -247.02283691 300.33753418 -247.2277832 299.38452148 C-250.46394078 283.4480767 -251.28376262 267.72157694 -251.25 251.5 C-251.24945618 250.51254791 -251.24891235 249.52509583 -251.24835205 248.50772095 C-251.20787777 232.47521119 -250.28917869 217.09106064 -246.875 201.375 C-246.54556396 199.83344238 -246.54556396 199.83344238 -246.20947266 198.26074219 C-239.83855227 169.23315163 -228.94630444 141.43884582 -212.875 116.375 C-212.01068359 114.99828125 -212.01068359 114.99828125 -211.12890625 113.59375 C-208.77401085 110.1195147 -207.69580583 108.64334037 -203.625 107.3125 C-200.875 107.375 -200.875 107.375 -198.875 108.375 C-198.606875 107.818125 -198.33875 107.26125 -198.0625 106.6875 C-196.77377353 104.17787477 -195.34573522 101.78165764 -193.875 99.375 C-194.205 99.045 -194.535 98.715 -194.875 98.375 C-195.26875188 94.743157 -195.17287785 92.86881207 -193.265625 89.70703125 C-192.55921875 88.87558594 -191.8528125 88.04414062 -191.125 87.1875 C-190.42890625 86.34832031 -189.7328125 85.50914063 -189.015625 84.64453125 C-187.05557742 82.56645161 -185.31308314 80.85947804 -182.875 79.375 C-181.8025 79.478125 -180.73 79.58125 -179.625 79.6875 C-174.58240029 79.26728336 -172.74700653 77.22696698 -169.390625 73.6015625 C-167.27680122 70.49620282 -167.66717807 68.04652076 -167.875 64.375 C-165.69921875 61.9453125 -165.69921875 61.9453125 -162.875 59.375 C-161.699375 58.29412109 -161.699375 58.29412109 -160.5 57.19140625 C-129.16861226 30.28930695 -90.66794403 13.12545868 -50.5 4.5625 C-49.58669922 4.36744873 -48.67339844 4.17239746 -47.73242188 3.97143555 C-31.84795789 0.78131508 -16.16266779 -0.03364001 0 0 Z M-95.0625 169.6875 C-117.25583233 195.71210233 -126.77461418 228.51072412 -124.875 262.375 C-121.85230484 296.16820154 -105.02973515 326.05304167 -79.64453125 348.16015625 C-53.06981586 369.41243217 -20.30018571 379.26174661 13.59667969 376.14794922 C47.49359765 372.17860752 77.49626145 355.02957852 98.78515625 328.49609375 C119.42913704 300.959298 128.92519708 267.87972602 124.40454102 233.48706055 C119.3248935 201.19268478 101.85193328 170.86657897 75.54882812 151.19628906 C20.99547375 111.53519545 -49.74154457 121.36936716 -95.0625 169.6875 Z " fill="#020202" transform="translate(255.875,4.625)"/>
<path d="M0 0 C1.21076202 0.0249781 1.21076202 0.0249781 2.44598389 0.05046082 C12.80829959 0.33171395 23.15572066 1.10964204 33.48681641 1.9309082 C36.93428927 2.20203835 40.38290796 2.45202252 43.83203125 2.70117188 C46.04697356 2.87242793 48.2618216 3.0449086 50.4765625 3.21875 C52.00630707 3.32676689 52.00630707 3.32676689 53.56695557 3.43696594 C60.61981028 4.02413613 65.86559263 5.09860186 71.4609375 9.69921875 C74.80664426 13.80965849 75.91071066 17.19477236 75.484375 22.4375 C74.77733677 28.12484652 72.46355388 32.75479598 69.8984375 37.82421875 C69.41544189 38.80559814 68.93244629 39.78697754 68.43481445 40.7980957 C66.85339904 44.00148857 65.25177702 47.19424951 63.6484375 50.38671875 C62.51096388 52.67280164 61.37425416 54.95926477 60.23828125 57.24609375 C57.56364589 62.6200733 54.88165013 67.99010964 52.16552734 73.34326172 C51.11635179 75.44802876 50.0976725 77.56817323 49.10400391 79.69970703 C48.34676025 81.30241455 48.34676025 81.30241455 47.57421875 82.9375 C47.13118408 83.89954346 46.68814941 84.86158691 46.23168945 85.8527832 C43.84034564 89.68003955 40.63727998 91.33183839 36.7734375 93.5 C7.95015471 110.90205698 -10.36317903 143.89788529 -18.29296875 175.62890625 C-19.20695474 179.53489565 -19.86881606 183.40541661 -20.3515625 187.38671875 C-23.90587411 183.1139375 -26.98435207 178.59355728 -30.0703125 173.98046875 C-30.61006714 173.17814819 -31.14982178 172.37582764 -31.70593262 171.54919434 C-34.00331943 168.13408806 -36.29560861 164.71556988 -38.58837891 161.29736328 C-40.26809753 158.79471127 -41.95039428 156.29380641 -43.6328125 153.79296875 C-44.14646362 153.02513062 -44.66011475 152.25729248 -45.18933105 151.46618652 C-50.69800293 143.27899866 -55.39446252 137.66124783 -64.7890625 134.07421875 C-73.03682844 132.48254462 -79.97941035 133.05462934 -87.3515625 137.38671875 C-93.43934662 142.02894071 -97.67212137 147.19264507 -101.78515625 153.6015625 C-102.34856216 154.45730362 -102.91196808 155.31304474 -103.4924469 156.19471741 C-105.26919516 158.89740393 -107.02977352 161.61014219 -108.7890625 164.32421875 C-110.57624146 167.06126401 -112.36671444 169.79608686 -114.16065979 172.52870178 C-115.27148319 174.22283331 -116.37783914 175.91990389 -117.47935486 177.62010193 C-118.22131859 178.75742516 -118.22131859 178.75742516 -118.97827148 179.91772461 C-119.63157692 180.92530067 -119.63157692 180.92530067 -120.29808044 181.95323181 C-120.81955406 182.66280785 -120.81955406 182.66280785 -121.3515625 183.38671875 C-121.6815625 183.38671875 -122.0115625 183.38671875 -122.3515625 183.38671875 C-121.50705257 144.76958308 -105.45479247 104.01829895 -83.53125 72.6484375 C-82.13274136 69.9671908 -81.9716934 68.37210028 -82.3515625 65.38671875 C-83.3415625 63.90171875 -83.3415625 63.90171875 -84.3515625 62.38671875 C-82.3715625 59.41671875 -80.3915625 56.44671875 -78.3515625 53.38671875 C-78.6815625 53.05671875 -79.0115625 52.72671875 -79.3515625 52.38671875 C-79.74531438 48.75487575 -79.64944035 46.88053082 -77.7421875 43.71875 C-77.03578125 42.88730469 -76.329375 42.05585937 -75.6015625 41.19921875 C-74.90546875 40.36003906 -74.209375 39.52085938 -73.4921875 38.65625 C-71.53213992 36.57817036 -69.78964564 34.87119679 -67.3515625 33.38671875 C-66.2790625 33.48984375 -65.2065625 33.59296875 -64.1015625 33.69921875 C-59.62225361 33.32594301 -59.26940964 32.56663652 -56.4140625 29.32421875 C-54.38671875 27.078125 -54.38671875 27.078125 -52.3515625 25.38671875 C-50.15432899 25.27964109 -48.46322751 25.73515241 -46.33203125 26.2421875 C-42.92964262 26.49048805 -41.15930801 24.49141974 -38.65625 22.3828125 C-37.51542969 21.39474609 -37.51542969 21.39474609 -36.3515625 20.38671875 C-32.65165725 17.44796567 -28.90495388 14.58050225 -25.12548828 11.74511719 C-22.80466085 9.96792426 -20.55326644 8.10916454 -18.31030273 6.23486328 C-12.17510747 1.89745634 -7.58533829 -0.3060571 0 0 Z " fill="#A8DDFB" transform="translate(140.3515625,50.61328125)"/>
<path d="M0 0 C6.82413673 4.70107197 11.09109282 12.11929544 15.53125 18.96484375 C16.15221558 19.91259171 16.77318115 20.86033966 17.41296387 21.83680725 C19.38414344 24.84651653 21.34878545 27.86041584 23.3125 30.875 C25.27700254 33.88548307 27.24297133 36.8949799 29.21203613 39.90248108 C30.43256595 41.76719371 31.65042343 43.63365929 32.8651123 45.50218201 C35.50783121 49.54421213 38.18889398 53.46283336 41.17724609 57.25805664 C43.39635395 60.17509788 44.56537448 62.21221848 44.6953125 65.96875 C44.74526367 66.85353027 44.79521484 67.73831055 44.84667969 68.64990234 C44.87665039 69.56980957 44.90662109 70.4897168 44.9375 71.4375 C47.20043432 107.38702543 64.98253801 139.42321195 91.5625 163.1875 C92.38234375 163.89390625 93.2021875 164.6003125 94.046875 165.328125 C94.62953125 165.85921875 95.2121875 166.3903125 95.8125 166.9375 C95.8125 167.2675 95.8125 167.5975 95.8125 167.9375 C91.30507349 168.98885864 86.78370814 169.30640564 82.1796875 169.62109375 C80.46873901 169.74529135 78.75780186 169.86964539 77.046875 169.99414062 C74.37482582 170.18496638 71.70267208 170.37394476 69.03027344 170.55981445 C47.23932417 171.15762446 47.23932417 171.15762446 29.0625 181.5625 C24.4279287 187.26821936 20.92650329 194.27121788 21.52172852 201.79125977 C22.87174382 211.75598229 27.87332464 220.62901633 32.3125 229.5 C40.4255419 245.7549353 40.4255419 245.7549353 42.8125 253.9375 C-7.23433339 222.74238861 -39.82908999 167.1064399 -52.91943359 110.75268555 C-53.72402565 107.1570463 -54.46893701 103.55120868 -55.1875 99.9375 C-55.40277344 98.87273437 -55.61804688 97.80796875 -55.83984375 96.7109375 C-57.21277177 89.27507918 -57.86868517 81.7506606 -58.10009766 74.19458008 C-58.16565118 72.50172454 -58.28974308 70.81096896 -58.44287109 69.1237793 C-58.94925965 60.64482557 -56.69952041 56.32941995 -51.5625 49.75 C-50.10075658 47.77431103 -48.64403425 45.79490073 -47.19140625 43.8125 C-46.80009018 43.28465408 -46.40877411 42.75680817 -46.00559998 42.21296692 C-42.64934244 37.65849587 -39.50771885 32.97822671 -36.40234375 28.25 C-35.91300354 27.50594406 -35.42366333 26.76188812 -34.91949463 25.99528503 C-32.9595929 23.01043779 -31.00310385 20.02345544 -29.05609131 17.03018188 C-27.68659642 14.92800517 -26.30707264 12.83271879 -24.92578125 10.73828125 C-24.52109116 10.1100647 -24.11640106 9.48184814 -23.69944763 8.83459473 C-17.79518438 -0.07511256 -10.27857767 -3.42619256 0 0 Z " fill="#E1BF60" transform="translate(75.1875,197.0625)"/>
<path d="M0 0 C19.96045456 12.03963926 38.17049392 30.58464761 51.80126953 49.35253906 C53.0135225 51.01858448 54.25260363 52.66186715 55.49609375 54.3046875 C73.01413715 77.76214932 84.52855844 104.12428434 93 132 C93.23444824 132.75555176 93.46889648 133.51110352 93.71044922 134.28955078 C97.91785571 148.10701716 99.40267704 162.69536498 101 177 C101.10989258 177.90621094 101.21978516 178.81242188 101.33300781 179.74609375 C102.35182598 188.88952367 101.19587496 195.36078995 95.39086914 202.64233398 C94.42553608 203.81259993 93.45642337 204.9797566 92.48388672 206.14404297 C89.8542023 209.43309545 87.60953249 212.97471733 85.3125 216.5 C84.30875476 218.0152931 83.30349976 219.52958701 82.296875 221.04296875 C81.77158203 221.83364746 81.24628906 222.62432617 80.70507812 223.43896484 C77.50763702 228.24153603 74.29211703 233.03151266 71.0625 237.8125 C70.43577393 238.74964844 69.80904785 239.68679688 69.16333008 240.65234375 C60.4069365 253.57558913 60.4069365 253.57558913 53 255 C47.05171446 255.08558684 42.53430251 254.04668283 38 250 C35.61791625 247.16291149 33.56328763 244.13632327 31.5 241.0625 C30.89760498 240.18368164 30.29520996 239.30486328 29.67456055 238.39941406 C27.76870724 235.6090094 25.88146276 232.80689967 24 230 C23.09241943 228.64720947 23.09241943 228.64720947 22.16650391 227.26708984 C17.35163945 220.07673581 17.35163945 220.07673581 15.06738281 216.57397461 C12.43687672 212.55315418 9.7880899 208.65189879 6.74609375 204.9296875 C-0.0917126 196.38950466 -1.96834196 189.85404974 -2.43969727 178.92602539 C-3.62476868 151.98835535 -16.54202543 126.1332634 -34 106 C-34.70769531 105.17113281 -35.41539062 104.34226562 -36.14453125 103.48828125 C-40.81230946 98.15017413 -45.76919211 93.35666619 -51.12890625 88.71484375 C-51.74636719 88.14894531 -52.36382812 87.58304687 -53 87 C-53 86.67 -53 86.34 -53 86 C-44.35665563 84.91078418 -35.72502321 83.92239604 -27.03515625 83.2890625 C-25.92725235 83.20588776 -25.92725235 83.20588776 -24.79696655 83.12103271 C-21.78991662 82.89605293 -18.78306397 82.67266347 -15.77416992 82.47363281 C-4.4117659 81.71087603 6.77363686 80.80029545 15 72 C19.85003639 63.77602525 22.35401173 56.60117405 21 47 C19.07093284 40.72566035 15.89192456 34.8695283 13 29 C11.55741698 26.0207617 10.11828007 23.03992074 8.68208313 20.05760193 C7.20331818 16.98811435 5.71867566 13.9218893 4.21801758 10.86303711 C3.67169678 9.74292236 3.12537598 8.62280762 2.5625 7.46875 C2.06878906 6.46263672 1.57507813 5.45652344 1.06640625 4.41992188 C0 2 0 2 0 0 Z " fill="#CEDBE4" transform="translate(394,61)"/>
<path d="M0 0 C2.64352704 3.25161808 5.14605709 6.55244795 7.5390625 9.9921875 C8.19712891 10.93771484 8.85519531 11.88324219 9.53320312 12.85742188 C10.56864258 14.35112305 10.56864258 14.35112305 11.625 15.875 C12.33849609 16.89916016 13.05199219 17.92332031 13.78710938 18.97851562 C17.37239854 24.1406831 20.89180521 29.32981317 24.28710938 34.61865234 C29.25823292 42.32949735 34.53106084 49.72474582 43.68359375 52.5546875 C52.76102801 54.29975918 59.89487 53.27169103 68.1484375 49.19140625 C77.87603935 41.71581086 84.17231437 28.83604105 90.83422852 18.68017578 C92.29841713 16.45090072 93.76808801 14.22531778 95.23828125 12 C95.68722244 11.31156006 96.13616364 10.62312012 96.59870911 9.91381836 C99.77393093 5.11303453 99.77393093 5.11303453 102 4 C99.05242079 50.14486074 79.53388816 95.03470532 51 131 C50.57315918 131.54398438 50.14631836 132.08796875 49.70654297 132.6484375 C37.45116137 148.14718198 23.08746069 162.50623365 7 174 C6.43023437 174.40927734 5.86046875 174.81855469 5.2734375 175.24023438 C1.5588523 177.89291462 -2.19153782 180.48318584 -6 183 C-6.56924194 183.42851761 -7.13848389 183.85703522 -7.72497559 184.29853821 C-13.12725632 188.13116755 -16.929232 188.566599 -23.4140625 187.92578125 C-24.31605377 187.85933914 -25.21804504 187.79289703 -26.14736938 187.72444153 C-28.08907788 187.57929576 -30.02993935 187.42242869 -31.96984863 187.25494385 C-35.03929262 186.99669409 -38.10873755 186.78547806 -41.18261719 186.58740234 C-46.50324865 186.24130361 -51.81901592 185.84933339 -57.13476562 185.43530273 C-59.31944487 185.26822547 -61.50470151 185.108554 -63.69042969 184.95581055 C-66.9070803 184.73056889 -70.12132909 184.48301206 -73.3359375 184.23046875 C-74.79064957 184.13489937 -74.79064957 184.13489937 -76.27474976 184.03739929 C-82.96024897 183.47665359 -87.98147736 182.15783907 -92.77734375 177.140625 C-93.35162109 176.20476562 -93.35162109 176.20476562 -93.9375 175.25 C-94.53884766 174.32960938 -94.53884766 174.32960938 -95.15234375 173.390625 C-97.7850214 165.96574609 -95.28274011 160.55175302 -92.08764648 153.76074219 C-91.52247314 152.60219727 -90.9572998 151.44365234 -90.375 150.25 C-89.79069089 149.02556903 -89.20745785 147.80062403 -88.62524414 146.57519531 C-82.7357039 134.23817416 -76.6271153 121.99810551 -70.4140625 109.82128906 C-69.54012208 108.07763307 -68.6909099 106.32102848 -67.8828125 104.54589844 C-65.91152388 100.24401261 -64.31984109 97.96854817 -60.125 95.75 C-33.39020082 80.02993808 -13.16020925 51.02243799 -4.83984375 21.421875 C-3.09426581 14.30965977 -1.51184794 7.16519423 0 0 Z " fill="#F07A88" transform="translate(392,274)"/>
<path d="M0 0 C0.78150421 0.00126892 1.56300842 0.00253784 2.36819458 0.00384521 C13.67068277 0.03885849 24.79485604 0.13461441 35.9375 2.1875 C36.96858887 2.37586426 37.99967773 2.56422852 39.06201172 2.75830078 C54.52152359 5.66635325 69.29993102 9.4274636 83.9375 15.1875 C84.6696875 15.46706543 85.401875 15.74663086 86.15625 16.03466797 C86.878125 16.31068848 87.6 16.58670898 88.34375 16.87109375 C88.96958984 17.11013428 89.59542969 17.3491748 90.24023438 17.59545898 C93.09076323 18.75137061 95.90191506 19.98699468 98.71554565 21.22972107 C100.14396642 21.84544538 101.5822224 22.4390826 103.03128052 23.00453186 C115.2178014 27.77393297 120.72424511 33.72756612 126.1015625 45.57617188 C126.88152712 47.38354604 127.66017111 49.19149068 128.4375 51 C129.24255399 52.76718771 130.05243686 54.53218374 130.8671875 56.29492188 C132.47811179 59.80348182 134.05290508 63.32477983 135.59692383 66.86328125 C137.1897872 70.5116654 138.82676181 74.13510772 140.50268555 77.74609375 C140.9181665 78.64688156 141.33364746 79.54766937 141.76171875 80.47575378 C142.55137682 82.18467263 143.34699202 83.89085646 144.1496582 85.59370422 C146.82183571 91.41999143 148.63441252 96.76515747 146.9375 103.1875 C144.75961093 107.6239407 142.02314574 110.42968913 137.9375 113.1875 C134.58134501 114.26787707 131.20634825 114.49306556 127.70361328 114.77587891 C126.44195343 114.87913483 125.18029358 114.98239075 123.88040161 115.08877563 C122.5062282 115.19749519 121.13203119 115.30591683 119.7578125 115.4140625 C118.34300047 115.52704335 116.92819548 115.64011231 115.51339722 115.75326538 C112.54964806 115.98934365 109.58568854 116.22255559 106.62158203 116.45410156 C102.83267954 116.75056343 99.04464318 117.05686197 95.25673103 117.36568642 C92.33509672 117.60230667 89.41296579 117.83227059 86.49065781 118.06040573 C85.0943002 118.1704775 83.69812708 118.28291717 82.30215836 118.3978157 C80.34538896 118.55814454 78.38778825 118.70822638 76.43017578 118.85791016 C75.31861115 118.94593903 74.20704651 119.0339679 73.0617981 119.12466431 C66.9513863 119.24755654 62.3804224 117.64734257 57 114.9375 C39.45962603 106.48127115 21.63690303 102.63478828 2.22851562 102.79638672 C-0.06180312 102.8124951 -2.35035839 102.79641301 -4.640625 102.77734375 C-17.64184684 102.75802919 -30.07380306 104.42977847 -42.375 108.8125 C-43.58800781 109.23789063 -44.80101562 109.66328125 -46.05078125 110.1015625 C-47.04464844 110.45992188 -48.03851563 110.81828125 -49.0625 111.1875 C-50.0525 111.5175 -51.0425 111.8475 -52.0625 112.1875 C-50.77348397 108.06348746 -49.22784461 104.29068272 -47.26953125 100.44140625 C-46.72458008 99.3632666 -46.17962891 98.28512695 -45.61816406 97.17431641 C-44.75529785 95.47927979 -44.75529785 95.47927979 -43.875 93.75 C-38.23482967 82.58455266 -38.23482967 82.58455266 -32.8125 71.3125 C-32.29171875 70.20132813 -31.7709375 69.09015625 -31.234375 67.9453125 C-28.11413445 60.60234639 -27.65433771 51.92347183 -29.93359375 44.2578125 C-33.61093371 36.32440367 -39.18238035 31.52716324 -47.12744141 28.09277344 C-53.57157765 26.10517926 -60.4303945 25.96084257 -67.125 25.5 C-68.63487958 25.38363069 -70.1446473 25.26580039 -71.65429688 25.14648438 C-81.44963871 24.3859703 -91.25561649 23.77743165 -101.0625 23.1875 C-99.62824781 20.31899561 -97.87505416 20.13237582 -94.91015625 18.98046875 C-93.83330566 18.56112061 -92.75645508 18.14177246 -91.64697266 17.7097168 C-90.48472168 17.26926025 -89.3224707 16.82880371 -88.125 16.375 C-86.33908447 15.69787964 -86.33908447 15.69787964 -84.51708984 15.00708008 C-57.28571052 4.83071767 -29.05518245 -0.04846056 0 0 Z " fill="#E8976A" transform="translate(256.0625,16.8125)"/>
<path d="M0 0 C6.41205449 3.11430895 12.94279443 5.2474352 19.8125 7.125 C20.71871094 7.37540039 21.62492187 7.62580078 22.55859375 7.88378906 C47.17246159 14.33326828 75.09313944 12.09510823 99.05981445 4.28833008 C104.19254319 2.6475144 104.19254319 2.6475144 107.5 3.75 C107.24135162 4.27538361 106.98270325 4.80076721 106.71621704 5.34207153 C104.01879707 10.82313713 101.32672009 16.30680317 98.63769531 21.79199219 C97.63417435 23.83725731 96.62930457 25.8818612 95.62304688 27.92578125 C94.17480891 30.86805127 92.73147864 33.81268488 91.2890625 36.7578125 C90.61552231 38.1222197 90.61552231 38.1222197 89.92837524 39.51419067 C85.13790635 49.32160619 82.15660895 58.69527447 85.33984375 69.63671875 C88.77881905 77.1978328 94.17529542 82.63119807 101.86328125 85.84375 C111.16372738 89.09440643 121.31345012 88.89016717 131.0625 89.375 C134.10697862 89.53461578 137.15095922 89.69910344 140.19456482 89.87460327 C142.0781912 89.98247125 143.96239295 90.08080536 145.84706116 90.16860962 C146.69231857 90.21561005 147.53757599 90.26261047 148.40844727 90.31103516 C149.15248306 90.34782379 149.89651886 90.38461243 150.6631012 90.42251587 C152.5 90.75 152.5 90.75 154.5 92.75 C93.47501243 118.01698174 27.0617506 121.99256587 -34.81176758 96.52661133 C-40.88086794 93.95678559 -46.89236898 91.27238014 -52.8125 88.375 C-53.76322388 87.91105835 -53.76322388 87.91105835 -54.7331543 87.43774414 C-60.66496317 84.40046657 -63.65509427 80.97685992 -66.49609375 75 C-67.04885986 73.84669189 -67.60162598 72.69338379 -68.17114258 71.50512695 C-68.76018867 70.25354044 -69.34896832 69.00182849 -69.9375 67.75 C-70.54977289 66.46349939 -71.16265607 65.17728906 -71.77612305 63.89135742 C-77.75145695 51.33520542 -83.59982633 38.71801006 -89.4152832 26.0871582 C-90.09056872 24.63217097 -90.78264397 23.18471206 -91.5 21.75 C-92.26325018 14.90577297 -91.69112923 10.26464372 -87.5 4.75 C-82.42807115 0.81666742 -78.499513 -0.34547608 -72.19604492 -0.85424805 C-70.24337959 -1.01397346 -70.24337959 -1.01397346 -68.25126648 -1.17692566 C-66.82770236 -1.28897046 -65.40410209 -1.40055685 -63.98046875 -1.51171875 C-63.26255976 -1.56846079 -62.54465076 -1.62520283 -61.80498695 -1.68366432 C-58.00532321 -1.98389374 -54.20533912 -2.27959973 -50.4050293 -2.5715332 C-46.4868603 -2.87336019 -42.57004601 -3.19006647 -38.65334606 -3.5103178 C-35.63500593 -3.75442773 -32.61588964 -3.98757548 -29.59646034 -4.21778297 C-28.15252044 -4.32975637 -26.70888976 -4.44579688 -25.26561546 -4.56604576 C-23.24204808 -4.73358237 -21.21709333 -4.88409529 -19.19213867 -5.03393555 C-18.04202805 -5.12418503 -16.89191742 -5.21443451 -15.70695496 -5.30741882 C-9.78926897 -5.2014658 -5.18207864 -2.63858132 0 0 Z " fill="#6BBBB9" transform="translate(200.5,381.25)"/>
<path d="M0 0 C6.41205449 3.11430895 12.94279443 5.2474352 19.8125 7.125 C20.71871094 7.37540039 21.62492187 7.62580078 22.55859375 7.88378906 C47.17246159 14.33326828 75.09313944 12.09510823 99.05981445 4.28833008 C104.19254319 2.6475144 104.19254319 2.6475144 107.5 3.75 C107.24135162 4.27538361 106.98270325 4.80076721 106.71621704 5.34207153 C104.01879707 10.82313713 101.32672009 16.30680317 98.63769531 21.79199219 C97.63417435 23.83725731 96.62930457 25.8818612 95.62304688 27.92578125 C94.17480891 30.86805127 92.73147864 33.81268488 91.2890625 36.7578125 C90.61552231 38.1222197 90.61552231 38.1222197 89.92837524 39.51419067 C85.13790635 49.32160619 82.15660895 58.69527447 85.33984375 69.63671875 C88.77881905 77.1978328 94.17529542 82.63119807 101.86328125 85.84375 C111.16372738 89.09440643 121.31345012 88.89016717 131.0625 89.375 C134.10697862 89.53461578 137.15095922 89.69910344 140.19456482 89.87460327 C142.0781912 89.98247125 143.96239295 90.08080536 145.84706116 90.16860962 C146.69231857 90.21561005 147.53757599 90.26261047 148.40844727 90.31103516 C149.15248306 90.34782379 149.89651886 90.38461243 150.6631012 90.42251587 C152.5 90.75 152.5 90.75 154.5 92.75 C144.99302508 96.68629841 135.47146534 100.61053931 125.6875 103.8125 C124.46417969 104.21597656 123.24085938 104.61945313 121.98046875 105.03515625 C113.66366589 106.74332115 107.74583123 103.15990794 100.625 99.3125 C99.60414307 98.76899902 98.58328613 98.22549805 97.53149414 97.66552734 C88.70520476 92.93298074 80.02697091 88.00162502 71.5 82.75 C70.23422119 81.97317871 70.23422119 81.97317871 68.94287109 81.18066406 C55.64863865 72.98155689 42.89846535 64.24767074 30.5 54.75 C29.85063477 54.25371094 29.20126953 53.75742187 28.53222656 53.24609375 C16.66650962 44.14056711 5.2846283 34.52251509 -5.6796875 24.3515625 C-8.19478868 22.03153842 -10.74544913 19.76205472 -13.3125 17.5 C-17.89288849 13.3918938 -22.26704301 9.09110329 -26.625 4.75 C-27.30151611 4.07807617 -27.97803223 3.40615234 -28.67504883 2.71386719 C-29.30048584 2.08641602 -29.92592285 1.45896484 -30.5703125 0.8125 C-31.13508301 0.24660156 -31.69985352 -0.31929688 -32.28173828 -0.90234375 C-33.5 -2.25 -33.5 -2.25 -33.5 -3.25 C-30.12715177 -3.64632989 -26.75171364 -4.01320925 -23.375 -4.375 C-22.42367187 -4.48714844 -21.47234375 -4.59929687 -20.4921875 -4.71484375 C-12.21445579 -5.57710747 -7.37838972 -3.75688651 0 0 Z " fill="#73CFCF" transform="translate(200.5,381.25)"/>
<path d="M0 0 C6.82413673 4.70107197 11.09109282 12.11929544 15.53125 18.96484375 C16.46269836 20.38646568 16.46269836 20.38646568 17.41296387 21.83680725 C19.38414344 24.84651653 21.34878545 27.86041584 23.3125 30.875 C25.27700254 33.88548307 27.24297133 36.8949799 29.21203613 39.90248108 C30.43256595 41.76719371 31.65042343 43.63365929 32.8651123 45.50218201 C35.50783121 49.54421213 38.18889398 53.46283336 41.17724609 57.25805664 C43.39635395 60.17509788 44.56537448 62.21221848 44.6953125 65.96875 C44.74526367 66.85353027 44.79521484 67.73831055 44.84667969 68.64990234 C44.87665039 69.56980957 44.90662109 70.4897168 44.9375 71.4375 C47.20043432 107.38702543 64.98253801 139.42321195 91.5625 163.1875 C92.38234375 163.89390625 93.2021875 164.6003125 94.046875 165.328125 C94.62953125 165.85921875 95.2121875 166.3903125 95.8125 166.9375 C95.8125 167.2675 95.8125 167.5975 95.8125 167.9375 C93.9375 168.4375 93.9375 168.4375 90.8125 168.9375 C90.09578125 169.09863281 89.3790625 169.25976562 88.640625 169.42578125 C85.68794256 169.81602431 83.69435336 169.74557333 80.8125 168.9375 C76.46300369 165.50945254 73.18463526 161.28683891 69.8125 156.9375 C69.30847656 156.30038086 68.80445313 155.66326172 68.28515625 155.00683594 C64.96136268 150.79821703 61.72345685 146.53084091 58.52148438 142.22900391 C56.790904 139.90854285 55.04473455 137.60043306 53.296875 135.29296875 C25.21608392 97.99375569 3.0531079 55.88472768 -13.125 12.125 C-13.46104248 11.22467041 -13.79708496 10.32434082 -14.14331055 9.39672852 C-14.4350415 8.57873779 -14.72677246 7.76074707 -15.02734375 6.91796875 C-15.27863037 6.21567139 -15.52991699 5.51337402 -15.78881836 4.78979492 C-16.1875 2.9375 -16.1875 2.9375 -15.1875 -0.0625 C-10.0582896 -1.7722368 -5.12602784 -1.70867595 0 0 Z " fill="#F3D166" transform="translate(75.1875,197.0625)"/>
<path d="M0 0 C2.55677539 2.55677539 2.77926512 4.4604877 3.62109375 7.96875 C3.91693359 9.18046875 4.21277344 10.3921875 4.51757812 11.640625 C4.82115234 12.91421875 5.12472656 14.1878125 5.4375 15.5 C7.42401848 23.73657554 9.44250548 31.91949319 12 40 C11.35820801 40.49419434 10.71641602 40.98838867 10.05517578 41.49755859 C0.52915304 49.42485586 -5.54384005 59.2333908 -12.125 69.625 C-13.82007899 72.27091837 -15.51959066 74.91390456 -17.22213745 77.55502319 C-18.27246666 79.18754714 -19.3176567 80.82339111 -20.35720825 82.46279907 C-20.82214691 83.19131073 -21.28708557 83.91982239 -21.76611328 84.67041016 C-22.37919846 85.63776596 -22.37919846 85.63776596 -23.00466919 86.62466431 C-23.33312836 87.07852509 -23.66158752 87.53238586 -24 88 C-24.33 88 -24.66 88 -25 88 C-24.33915619 57.781415 -13.63129495 26.66788357 0 0 Z " fill="#9ECFE5" transform="translate(43,146)"/>
<path d="M0 0 C2.875 0.875 2.875 0.875 4.875 3.875 C5.2147214 9.4237828 3.25751908 12.04891694 -0.3125 16.25 C-2.95871844 19.23432131 -4.40288797 20.67903651 -8.27734375 21.73046875 C-11.125 21.875 -11.125 21.875 -13.5 20.8125 C-15.125 18.875 -15.125 18.875 -15.4609375 16.078125 C-15.05053786 12.16501219 -13.90172637 10.66147538 -11.375 7.6875 C-10.33085938 6.42873047 -10.33085938 6.42873047 -9.265625 5.14453125 C-4.25284449 -0.17011378 -4.25284449 -0.17011378 0 0 Z " fill="#020304" transform="translate(76.125,84.125)"/>
</svg>
